<svg version="1.1" id="Layer_1" xmlns="http://www.w3.org/2000/svg" xmlns:xlink="http://www.w3.org/1999/xlink" x="0px" y="0px"
	 width="100%" viewBox="0 0 329 328" enable-background="new 0 0 329 328" xml:space="preserve">
<path fill="#080B21" opacity="1.000000" stroke="none" 
	d="
M155.000000,329.000000 
	C103.698402,329.000000 52.396805,329.000000 1.047603,329.000000 
	C1.047603,219.766006 1.047603,110.531998 1.047603,1.000000 
	C76.020630,1.000000 151.041656,1.000000 226.251282,1.245810 
	C219.249542,2.329149 212.077072,3.526573 204.862961,3.884449 
	C199.582840,4.146382 196.180740,6.029650 193.989792,10.909250 
	C186.437988,27.728394 178.251953,44.276421 171.155563,61.281628 
	C166.366165,72.758545 162.887558,84.793465 159.056686,96.654381 
	C157.344299,101.956207 159.051041,103.834450 164.638885,103.170532 
	C169.090256,102.641655 173.505402,101.791161 177.925339,101.018799 
	C183.103790,100.113892 183.996460,101.095795 182.800980,106.135544 
	C182.211960,108.618607 181.986053,111.187805 181.595840,113.718025 
	C182.208344,113.983711 182.820831,114.249405 183.433319,114.515091 
	C186.294434,111.674637 189.155563,108.834190 192.323669,106.162178 
	C192.952591,107.445862 193.905655,109.146889 193.498550,109.585503 
	C189.537857,113.852844 185.493607,118.073692 181.117081,121.900566 
	C180.117401,122.774704 177.747147,122.081444 175.605972,122.008331 
	C169.136536,122.310318 163.068802,122.713554 156.640961,123.080185 
	C154.843964,122.063705 153.253265,121.248276 151.998215,120.074089 
	C147.713684,116.065575 143.547256,111.930817 139.167435,107.546478 
	C134.103745,102.432877 129.208359,97.617043 124.128448,92.485268 
	C119.436508,88.358757 121.238228,83.169044 121.507652,78.596779 
	C121.591843,77.167992 124.858704,75.813049 126.793823,74.628792 
	C132.134216,71.360573 133.956451,64.156303 130.665771,58.927528 
	C127.517365,53.924816 120.346268,52.298172 115.211868,55.422066 
	C110.073570,58.548332 107.785812,66.112251 111.724701,70.606300 
	C115.387123,74.784935 115.870796,79.156265 115.315834,83.918297 
	C114.612350,89.954636 117.016304,94.153801 121.991577,97.629700 
	C127.051407,102.716766 131.945007,107.525764 136.998535,112.617447 
	C141.137054,116.984520 145.115646,121.068901 149.223297,125.285774 
	C146.193390,127.361771 143.722549,129.304565 141.000595,130.785904 
	C140.031372,131.313370 138.452789,130.721191 136.994598,130.357117 
	C135.687439,128.887009 134.593872,127.639015 133.377777,126.524727 
	C130.302582,123.707008 127.904976,121.260880 129.228256,116.065269 
	C130.694275,110.309219 125.791946,105.630928 118.774307,104.600616 
	C111.102783,105.293404 106.704689,109.764290 107.018723,116.113449 
	C107.323792,122.281715 111.849663,126.247192 119.383698,126.665314 
	C122.323280,124.882645 124.393852,125.542328 126.567383,127.707222 
	C129.371429,130.500122 132.501083,132.966095 135.369568,135.467407 
	C132.253723,140.262207 129.793518,144.048065 126.408836,149.256561 
	C121.083099,143.366394 116.249138,138.020126 111.185287,132.419617 
	C109.134888,134.599396 107.568130,136.265015 105.710037,138.080780 
	C104.100441,139.412125 102.782196,140.593338 100.792892,142.375839 
	C97.318787,138.605774 93.911484,135.194977 90.898361,131.465683 
	C89.980499,130.329651 89.700790,128.259048 89.898758,126.715187 
	C90.636925,120.958786 88.712845,116.441948 84.120338,114.069946 
	C79.850090,111.864380 74.130920,112.802559 70.778412,116.258575 
	C67.625015,119.509331 66.860519,125.198647 69.035675,129.227753 
	C71.480598,133.756561 76.106636,135.552536 81.768341,134.910950 
	C83.670357,134.695404 86.277504,135.444931 87.644951,136.729767 
	C92.219185,141.027634 96.378448,145.767166 101.026466,150.686630 
	C104.206108,147.340088 106.693642,144.722000 109.481491,141.944809 
	C110.672981,141.677582 112.052437,141.144821 112.382668,141.524536 
	C117.990730,147.972977 128.361572,151.939713 124.182983,163.630005 
	C123.918854,164.368927 123.897507,165.360779 124.157104,166.095871 
	C128.143585,177.384399 122.985283,185.147308 114.149071,191.804688 
	C107.889977,197.940964 101.956848,203.956497 95.874542,209.817169 
	C94.140404,211.488113 91.973038,212.709427 89.550751,214.077911 
	C85.832115,214.018890 82.567070,214.018890 79.560669,214.018890 
	C78.975906,212.365662 78.670372,211.417572 78.308144,210.491653 
	C76.217735,205.148193 72.263336,202.544678 66.796028,202.893738 
	C61.821857,203.211304 58.052956,206.355179 56.837276,211.200928 
	C55.645828,215.950089 57.500496,220.660065 61.610447,223.322525 
	C65.943703,226.129608 70.909554,225.500473 75.466080,222.095047 
	C77.170891,220.820938 79.469620,220.075226 81.604042,219.708679 
	C84.358482,219.235687 87.219749,219.384781 90.399437,219.353546 
	C92.572701,218.852386 94.880318,218.778809 96.108208,217.589996 
	C103.279373,210.647156 110.197586,203.443008 117.491913,196.154724 
	C121.207329,192.670135 124.632034,189.357895 128.216354,185.891296 
	C130.590225,189.500809 132.658035,192.644943 135.547226,197.037994 
	C132.919189,199.183578 129.894821,201.089905 127.620361,203.659897 
	C125.087898,206.521439 122.476913,207.402695 118.597359,206.022308 
	C111.153534,206.275940 106.483673,211.173447 107.075920,217.610199 
	C107.674118,224.111603 112.674080,227.833893 120.906013,228.320145 
	C120.005135,229.650955 119.332535,231.286407 118.349556,231.501144 
	C113.351799,232.592941 112.921585,236.148392 112.986778,240.248306 
	C113.074074,245.738190 112.763474,251.243744 113.059113,256.719055 
	C113.730705,269.157288 114.530586,281.592682 115.569687,294.004822 
	C115.951332,298.563568 118.005173,299.364502 122.001015,297.234528 
	C128.855499,293.580688 129.810547,290.531525 125.482040,284.392273 
	C122.979912,280.843445 123.613228,278.289917 126.914223,275.969147 
	C130.292725,273.593903 133.131805,274.267914 135.505768,277.519012 
	C140.312836,284.102051 145.113724,290.689636 149.939316,297.259094 
	C151.692352,299.645599 153.346146,302.026886 150.540436,304.729767 
	C147.423843,307.732178 145.044388,305.659027 142.918579,303.382294 
	C139.344177,299.554077 135.728058,299.694275 132.028030,303.024200 
	C129.187408,305.580688 126.434868,308.236603 123.683647,310.890259 
	C121.457458,313.037537 121.661392,315.143036 123.682487,317.420959 
	C128.127441,322.430847 133.315628,325.216095 140.313614,324.750061 
	C145.558517,324.400757 151.086441,324.226288 155.000000,329.000000 
z"/>
<path fill="#0B1027" opacity="1.000000" stroke="none" 
	d="
M330.000000,110.000000 
	C330.000000,113.361290 330.000000,116.722572 329.704895,120.353348 
	C328.712585,119.538208 327.525055,118.506531 327.401215,117.359962 
	C326.797913,111.773682 326.318634,106.163147 326.092377,100.549232 
	C325.611389,88.613388 325.377716,76.667496 324.882172,64.732391 
	C324.794678,62.624649 323.928589,60.549232 323.315857,58.020763 
	C314.294800,65.856697 287.581909,128.394943 289.458130,137.121750 
	C292.379669,135.272705 295.180115,133.610443 297.866089,131.780151 
	C306.746887,125.728592 316.028748,124.895271 325.799561,129.406204 
	C327.155884,130.032394 328.597748,130.473328 330.000000,131.000000 
	C330.000000,140.020889 330.000000,149.041794 329.678558,158.658997 
	C327.039398,160.846527 324.562744,162.250793 322.432281,164.062180 
	C314.414154,170.879379 305.487854,174.402985 294.800049,172.533539 
	C293.076294,172.232025 291.216949,172.705582 288.035706,172.909683 
	C290.467255,174.970993 291.742584,175.958694 292.911224,177.059601 
	C297.140594,181.043915 297.965302,185.097565 293.442505,188.578293 
	C283.591949,196.159256 282.769897,207.190384 281.822205,217.653336 
	C280.357880,233.819885 280.516815,250.134995 280.059418,266.389130 
	C280.008575,268.196594 280.409668,270.019348 280.630554,271.831451 
	C281.748810,281.004822 282.907623,290.173370 283.984192,299.351624 
	C284.351105,302.479706 284.144409,305.718750 284.853729,308.754272 
	C286.541534,315.977234 290.909180,318.581238 298.287048,318.418091 
	C303.551788,318.301697 309.450348,317.930420 313.965332,320.034668 
	C319.810364,322.758820 324.656036,322.612915 330.000000,320.000000 
	C330.000000,322.943146 330.000000,325.886322 330.000000,329.000000 
	C325.315979,329.000000 320.630646,329.000000 315.207458,328.757324 
	C310.622681,327.682678 306.800812,326.701660 302.923737,326.048828 
	C294.087830,324.561035 285.229248,323.205261 276.369843,321.861755 
	C274.086060,321.515381 271.769012,321.296387 269.460693,321.222137 
	C264.169586,321.051880 258.873047,321.052887 253.581375,320.895721 
	C249.749771,320.781921 247.429565,318.850403 246.692947,314.985626 
	C245.976944,311.228943 245.085220,307.505829 244.280884,303.765778 
	C243.178574,298.640137 241.841614,297.936646 237.084595,300.062500 
	C236.024490,300.536285 235.017044,301.131439 233.999313,301.695923 
	C219.676682,309.640381 203.627487,305.931763 194.778503,292.212189 
	C192.328400,288.413483 190.555786,283.975525 189.428070,279.585327 
	C188.379898,275.504791 188.648682,271.092987 188.258224,266.834351 
	C187.899445,262.921295 187.518570,259.049683 192.444138,257.000244 
	C195.258667,257.000854 197.629074,257.001404 200.203949,257.263672 
	C202.466553,259.436646 204.524673,261.347900 206.521317,263.565735 
	C206.284927,264.249878 206.110031,264.627441 205.810852,265.125244 
	C205.733566,265.829437 205.780548,266.413422 205.898621,267.374573 
	C206.829437,273.188690 209.725510,276.941162 215.273651,277.874542 
	C221.113190,278.856995 224.951645,275.732391 228.008911,270.764160 
	C232.739349,268.810883 232.977631,265.069946 232.763245,261.100891 
	C232.522873,256.651031 232.118942,252.198471 232.140854,247.748810 
	C232.171585,241.505096 234.149811,236.615204 240.001373,232.858078 
	C245.520676,229.314285 251.550537,225.424957 253.277374,218.017883 
	C254.048523,218.253296 254.552185,218.449692 255.392761,218.790955 
	C263.257050,219.916885 266.514008,218.235779 269.395233,211.753723 
	C270.868530,201.422592 264.830292,195.495438 255.550415,197.977783 
	C253.236694,196.917969 250.966705,196.197998 249.424622,194.719070 
	C245.148071,190.617630 241.174652,186.200119 236.864197,181.679688 
	C234.410049,184.289337 232.710464,186.096634 230.724365,188.048950 
	C228.992767,189.380173 227.547684,190.566376 225.929810,191.476013 
	C222.233139,187.667862 218.473114,184.332718 215.295624,180.512985 
	C213.925430,178.865875 213.302322,176.250015 213.136047,174.015015 
	C212.671814,167.775009 212.487671,161.503784 212.498810,155.245438 
	C212.501907,153.503403 213.124771,151.381882 214.230972,150.093613 
	C217.577942,146.195755 221.301605,142.621353 225.176819,138.759705 
	C230.551880,133.626221 235.846527,128.853073 240.632172,123.614891 
	C244.085510,119.834969 247.707794,117.248962 253.436981,117.998619 
	C257.259735,117.644730 259.097870,118.789810 260.125183,122.451599 
	C261.269623,126.530945 264.654663,128.897888 269.028900,129.285904 
	C273.507996,129.683228 278.015869,128.375809 279.407013,124.186989 
	C280.626923,120.513794 280.728546,115.573135 279.218628,112.110420 
	C277.215546,107.516792 272.192780,106.518196 267.127411,107.127335 
	C266.755035,102.482506 264.101471,101.089874 260.276886,101.051682 
	C255.611771,101.005089 250.941193,101.031189 246.284241,100.799675 
	C242.953949,100.634125 240.665863,98.945328 241.709641,95.301628 
	C243.063568,90.575119 240.668701,88.854317 236.831100,87.102280 
	C233.493896,85.578682 229.021667,83.531425 227.964203,80.647423 
	C225.726608,74.544823 223.733902,68.281075 227.271774,61.095016 
	C233.114334,49.227703 232.368561,49.184673 244.672562,53.952930 
	C252.119339,56.838821 256.083160,61.421936 256.155579,69.567047 
	C256.173004,71.527267 257.494812,74.475929 259.035034,75.179993 
	C261.160004,76.151360 264.061737,75.423553 267.013794,75.423553 
	C264.732208,71.821007 261.621002,69.151314 261.851044,66.809906 
	C262.346588,61.766041 263.745331,56.431747 266.223877,52.033047 
	C273.623993,38.900108 281.709229,26.152590 289.557953,13.273474 
	C291.771118,9.641899 294.279114,6.216825 299.083893,6.125559 
	C305.080261,6.011661 311.090698,5.890146 317.076202,6.172445 
	C322.362183,6.421753 325.496674,9.839762 325.884186,15.229249 
	C326.075012,17.883778 325.871857,20.564919 326.016968,23.224745 
	C326.677002,35.321571 327.339508,47.419075 328.168610,59.504841 
	C328.273804,61.037895 329.365387,62.503269 330.000000,64.000000 
	C330.000000,78.687561 330.000000,93.375122 329.988403,108.656158 
	C329.962433,109.500336 329.970184,109.750458 330.000000,110.000000 
M314.130890,159.751297 
	C316.718018,156.798248 319.768646,154.125183 321.767090,150.816574 
	C323.939178,147.220352 323.098389,142.854141 320.015442,140.348282 
	C317.483246,138.290100 313.293640,136.310440 310.459442,136.968719 
	C303.268188,138.638931 298.370941,143.732315 296.831360,151.246735 
	C295.424774,158.112030 301.419983,164.043274 308.030609,162.446503 
	C309.928925,161.988007 311.681427,160.925781 314.130890,159.751297 
z"/>
<path fill="#0A0F26" opacity="1.000000" stroke="none" 
	d="
M330.000000,63.531342 
	C329.365387,62.503269 328.273804,61.037895 328.168610,59.504841 
	C327.339508,47.419075 326.677002,35.321571 326.016968,23.224745 
	C325.871857,20.564919 326.075012,17.883778 325.884186,15.229249 
	C325.496674,9.839762 322.362183,6.421753 317.076202,6.172445 
	C311.090698,5.890146 305.080261,6.011661 299.083893,6.125559 
	C294.279114,6.216825 291.771118,9.641899 289.557953,13.273474 
	C281.709229,26.152590 273.623993,38.900108 266.223877,52.033047 
	C263.745331,56.431747 262.346588,61.766041 261.851044,66.809906 
	C261.621002,69.151314 264.732208,71.821007 267.013794,75.423553 
	C264.061737,75.423553 261.160004,76.151360 259.035034,75.179993 
	C257.494812,74.475929 256.173004,71.527267 256.155579,69.567047 
	C256.083160,61.421936 252.119339,56.838821 244.672562,53.952930 
	C232.368561,49.184673 233.114334,49.227703 227.271774,61.095016 
	C223.733902,68.281075 225.726608,74.544823 227.964203,80.647423 
	C229.021667,83.531425 233.493896,85.578682 236.831100,87.102280 
	C240.668701,88.854317 243.063568,90.575119 241.709641,95.301628 
	C240.665863,98.945328 242.953949,100.634125 246.284241,100.799675 
	C250.941193,101.031189 255.611771,101.005089 260.276886,101.051682 
	C264.101471,101.089874 266.755035,102.482506 266.836426,107.283508 
	C262.311981,110.215065 258.701965,114.336601 252.576172,112.998367 
	C248.576431,113.609840 244.043381,113.144913 241.655487,115.187622 
	C234.417999,121.378899 228.011169,128.541199 221.022308,135.529022 
	C217.507217,139.467072 214.250534,143.201309 210.559479,147.433594 
	C207.420944,142.748108 205.266632,139.531921 202.709396,135.714264 
	C205.469162,133.219208 208.058517,130.884430 210.638885,128.539764 
	C211.130661,128.092926 211.507416,127.401100 212.076019,127.181267 
	C213.360596,126.684631 214.794617,125.952438 216.057541,126.124702 
	C223.254456,127.106354 227.759598,125.145599 230.026062,119.739136 
	C232.227814,114.487015 230.596161,109.901932 224.877197,105.248047 
	C223.680649,103.270691 222.854309,101.388855 221.479813,100.084785 
	C217.543030,96.349731 215.608261,91.911613 216.085617,86.312317 
	C217.699203,84.924553 219.296997,83.918221 220.364471,82.509903 
	C223.309494,78.624550 222.993988,72.860703 219.875031,69.143875 
	C216.651932,65.302963 211.487640,64.051392 206.806778,65.976814 
	C202.245529,67.853035 198.895386,72.878754 200.272171,77.537933 
	C201.360931,81.222328 200.265961,83.486145 197.665985,85.979492 
	C193.112442,89.958321 188.856201,93.772812 184.515442,97.663063 
	C187.662872,101.158516 189.839767,103.576126 192.016678,105.993736 
	C189.155563,108.834190 186.294434,111.674637 183.433319,114.515091 
	C182.820831,114.249405 182.208344,113.983711 181.595840,113.718025 
	C181.986053,111.187805 182.211960,108.618607 182.800980,106.135544 
	C183.996460,101.095795 183.103790,100.113892 177.925339,101.018799 
	C173.505402,101.791161 169.090256,102.641655 164.638885,103.170532 
	C159.051041,103.834450 157.344299,101.956207 159.056686,96.654381 
	C162.887558,84.793465 166.366165,72.758545 171.155563,61.281628 
	C178.251953,44.276421 186.437988,27.728394 193.989792,10.909250 
	C196.180740,6.029650 199.582840,4.146382 204.862961,3.884449 
	C212.077072,3.526573 219.249542,2.329149 226.719940,1.245810 
	C261.242615,1.000000 295.485229,1.000000 330.000000,1.000000 
	C330.000000,21.686766 330.000000,42.374725 330.000000,63.531342 
z"/>
<path fill="#0C112A" opacity="1.000000" stroke="none" 
	d="
M330.000000,319.531342 
	C324.656036,322.612915 319.810364,322.758820 313.965332,320.034668 
	C309.450348,317.930420 303.551788,318.301697 298.287048,318.418091 
	C290.909180,318.581238 286.541534,315.977234 284.853729,308.754272 
	C284.144409,305.718750 284.351105,302.479706 283.984192,299.351624 
	C282.907623,290.173370 281.748810,281.004822 280.630554,271.831451 
	C280.409668,270.019348 280.008575,268.196594 280.059418,266.389130 
	C280.516815,250.134995 280.357880,233.819885 281.822205,217.653336 
	C282.769897,207.190384 283.591949,196.159256 293.442505,188.578293 
	C297.965302,185.097565 297.140594,181.043915 292.911224,177.059601 
	C291.742584,175.958694 290.467255,174.970993 288.035706,172.909683 
	C291.216949,172.705582 293.076294,172.232025 294.800049,172.533539 
	C305.487854,174.402985 314.414154,170.879379 322.432281,164.062180 
	C324.562744,162.250793 327.039398,160.846527 329.678558,159.127655 
	C330.000000,212.354233 330.000000,265.708466 330.000000,319.531342 
z"/>
<path fill="#0A0E24" opacity="1.000000" stroke="none" 
	d="
M199.999466,257.001953 
	C197.629074,257.001404 195.258667,257.000854 192.057404,256.868225 
	C188.091766,256.530273 184.949356,256.081909 181.824188,256.180481 
	C177.973770,256.301910 177.186859,258.351257 179.391998,261.424805 
	C181.620010,264.530273 184.425919,267.318665 186.101273,270.682861 
	C186.971497,272.430328 186.780212,276.233704 185.585403,277.128906 
	C183.733185,278.516663 180.576920,278.649475 178.045685,278.440430 
	C176.781143,278.335999 175.654907,276.316833 174.503510,275.127533 
	C171.100677,271.612640 167.716492,268.079712 164.325012,264.553864 
	C163.729218,264.804718 163.133438,265.055573 162.537643,265.306427 
	C162.681381,267.399811 162.311829,269.710266 163.084717,271.537537 
	C164.362610,274.558746 166.184296,277.407806 168.117661,280.083099 
	C173.926651,288.121155 173.990906,288.074738 167.080719,295.369110 
	C163.974899,298.647614 164.423569,313.325958 167.872543,316.410492 
	C168.781097,317.223022 170.225723,317.736938 171.466156,317.830292 
	C182.048798,318.626648 192.663254,319.060120 203.225082,320.058502 
	C217.202118,321.379669 231.130798,323.204926 245.098602,324.634338 
	C253.462936,325.490326 261.876251,325.871155 270.237732,326.749481 
	C272.874847,327.026489 275.415314,328.223877 278.000000,329.000000 
	C247.645767,329.000000 217.291550,329.000000 186.191742,328.755707 
	C179.909332,326.829987 174.357132,324.631989 169.000000,329.000000 
	C164.643097,329.000000 160.286194,329.000000 155.464645,329.000000 
	C151.086441,324.226288 145.558517,324.400757 140.313614,324.750061 
	C133.315628,325.216095 128.127441,322.430847 123.682487,317.420959 
	C121.661392,315.143036 121.457458,313.037537 123.683647,310.890259 
	C126.434868,308.236603 129.187408,305.580688 132.028030,303.024200 
	C135.728058,299.694275 139.344177,299.554077 142.918579,303.382294 
	C145.044388,305.659027 147.423843,307.732178 150.540436,304.729767 
	C153.346146,302.026886 151.692352,299.645599 149.939316,297.259094 
	C145.113724,290.689636 140.312836,284.102051 135.505768,277.519012 
	C133.131805,274.267914 130.292725,273.593903 126.914223,275.969147 
	C123.613228,278.289917 122.979912,280.843445 125.482040,284.392273 
	C129.810547,290.531525 128.855499,293.580688 122.001015,297.234528 
	C118.005173,299.364502 115.951332,298.563568 115.569687,294.004822 
	C114.530586,281.592682 113.730705,269.157288 113.059113,256.719055 
	C112.763474,251.243744 113.074074,245.738190 112.986778,240.248306 
	C112.921585,236.148392 113.351799,232.592941 118.349556,231.501144 
	C119.332535,231.286407 120.005135,229.650955 121.000427,228.129105 
	C121.179985,227.587479 121.346237,227.195053 121.678055,227.132919 
	C124.240150,225.244965 126.470421,223.419128 129.013245,221.823273 
	C131.807755,222.700851 134.289749,223.348434 136.921844,224.311172 
	C139.541443,227.617432 142.010925,230.608551 144.555115,233.690155 
	C142.373825,236.117889 140.188675,238.549927 137.710724,241.151001 
	C134.632996,246.953918 129.493195,245.070465 124.636147,245.230392 
	C118.349716,247.515808 115.576599,250.908875 115.544052,255.940948 
	C115.511185,261.021912 118.278625,264.566559 124.438545,266.887085 
	C133.283737,267.265472 139.313782,261.879425 137.712524,254.633759 
	C136.885605,250.892014 137.948318,248.656662 140.479950,246.130890 
	C144.523636,241.900269 148.277374,237.840057 151.800674,234.029129 
	C148.817169,230.278336 144.011612,226.829987 144.351730,224.000122 
	C144.765594,220.557022 149.511124,217.633286 152.387589,214.489212 
	C152.722015,214.123672 153.141815,213.825592 153.428406,213.428635 
	C155.578018,210.451187 158.438644,209.328293 162.223511,210.197128 
	C162.873459,210.374908 163.332825,210.416946 164.171799,210.601959 
	C165.361252,210.757950 166.171112,210.770981 167.424149,210.862579 
	C171.475876,210.597916 175.213287,210.723160 178.655792,209.776245 
	C181.927139,208.876434 183.836411,209.854172 185.967758,212.070450 
	C190.197891,216.469193 194.672119,220.633179 199.158691,225.133682 
	C199.560120,225.813934 199.848343,226.254700 200.192780,227.065002 
	C204.668747,233.800385 209.037369,240.203125 213.570663,246.487061 
	C214.161575,247.306137 215.599686,247.514038 216.713974,248.417328 
	C216.737564,250.218369 216.692566,251.607101 216.338623,253.110840 
	C215.088120,254.371338 214.146561,255.516800 212.969879,256.810425 
	C211.895935,257.337769 211.057144,257.717041 209.775589,258.079041 
	C206.221710,257.708557 203.110596,257.355255 199.999466,257.001953 
M163.163635,239.955276 
	C164.015030,240.922211 164.732178,242.545395 165.739227,242.751419 
	C173.234238,244.284607 180.754791,245.792252 188.338272,246.740356 
	C191.041626,247.078339 193.941284,245.846207 196.751328,245.330765 
	C194.782654,242.824829 192.849869,240.289078 190.813324,237.839554 
	C190.432419,237.381409 189.611588,236.988281 189.035126,237.038635 
	C180.522797,237.782211 172.017456,238.605835 163.163635,239.955276 
M157.555664,284.918427 
	C158.237518,285.641144 158.799942,286.574646 159.626068,287.042755 
	C161.351318,288.020294 163.215820,288.752106 165.023117,289.584839 
	C164.924591,287.510529 165.577438,284.942596 164.595871,283.448395 
	C160.611526,277.383270 156.150681,271.629028 151.812683,265.799469 
	C149.859390,263.174561 147.377380,261.258575 144.321594,263.900238 
	C141.025116,266.750000 143.489990,269.187561 145.521545,271.458099 
	C149.378143,275.768311 153.240128,280.073730 157.555664,284.918427 
z"/>
<path fill="#0A0F26" opacity="1.000000" stroke="none" 
	d="
M278.468658,329.000000 
	C275.415314,328.223877 272.874847,327.026489 270.237732,326.749481 
	C261.876251,325.871155 253.462936,325.490326 245.098602,324.634338 
	C231.130798,323.204926 217.202118,321.379669 203.225082,320.058502 
	C192.663254,319.060120 182.048798,318.626648 171.466156,317.830292 
	C170.225723,317.736938 168.781097,317.223022 167.872543,316.410492 
	C164.423569,313.325958 163.974899,298.647614 167.080719,295.369110 
	C173.990906,288.074738 173.926651,288.121155 168.117661,280.083099 
	C166.184296,277.407806 164.362610,274.558746 163.084717,271.537537 
	C162.311829,269.710266 162.681381,267.399811 162.537643,265.306427 
	C163.133438,265.055573 163.729218,264.804718 164.325012,264.553864 
	C167.716492,268.079712 171.100677,271.612640 174.503510,275.127533 
	C175.654907,276.316833 176.781143,278.335999 178.045685,278.440430 
	C180.576920,278.649475 183.733185,278.516663 185.585403,277.128906 
	C186.780212,276.233704 186.971497,272.430328 186.101273,270.682861 
	C184.425919,267.318665 181.620010,264.530273 179.391998,261.424805 
	C177.186859,258.351257 177.973770,256.301910 181.824188,256.180481 
	C184.949356,256.081909 188.091766,256.530273 191.613266,256.868134 
	C187.518570,259.049683 187.899445,262.921295 188.258224,266.834351 
	C188.648682,271.092987 188.379898,275.504791 189.428070,279.585327 
	C190.555786,283.975525 192.328400,288.413483 194.778503,292.212189 
	C203.627487,305.931763 219.676682,309.640381 233.999313,301.695923 
	C235.017044,301.131439 236.024490,300.536285 237.084595,300.062500 
	C241.841614,297.936646 243.178574,298.640137 244.280884,303.765778 
	C245.085220,307.505829 245.976944,311.228943 246.692947,314.985626 
	C247.429565,318.850403 249.749771,320.781921 253.581375,320.895721 
	C258.873047,321.052887 264.169586,321.051880 269.460693,321.222137 
	C271.769012,321.296387 274.086060,321.515381 276.369843,321.861755 
	C285.229248,323.205261 294.087830,324.561035 302.923737,326.048828 
	C306.800812,326.701660 310.622681,327.682678 314.734802,328.757324 
	C302.979095,329.000000 290.958221,329.000000 278.468658,329.000000 
z"/>
<path fill="#0B1029" opacity="1.000000" stroke="none" 
	d="
M330.000000,130.545898 
	C328.597748,130.473328 327.155884,130.032394 325.799561,129.406204 
	C316.028748,124.895271 306.746887,125.728592 297.866089,131.780151 
	C295.180115,133.610443 292.379669,135.272705 289.458130,137.121750 
	C287.581909,128.394943 314.294800,65.856697 323.315857,58.020763 
	C323.928589,60.549232 324.794678,62.624649 324.882172,64.732391 
	C325.377716,76.667496 325.611389,88.613388 326.092377,100.549232 
	C326.318634,106.163147 326.797913,111.773682 327.401215,117.359962 
	C327.525055,118.506531 328.712585,119.538208 329.704895,120.811417 
	C330.000000,124.030594 330.000000,127.061188 330.000000,130.545898 
z"/>
<path fill="#080B21" opacity="1.000000" stroke="none" 
	d="
M169.467606,329.000000 
	C174.357132,324.631989 179.909332,326.829987 185.723083,328.755707 
	C180.645065,329.000000 175.290146,329.000000 169.467606,329.000000 
z"/>
<path fill="#0B1029" opacity="1.000000" stroke="none" 
	d="
M330.000000,109.750000 
	C329.970184,109.750458 329.962433,109.500336 329.988403,109.124817 
	C330.000000,109.000000 330.000000,109.500000 330.000000,109.750000 
z"/>
<path fill="#3D2FBE" opacity="1.000000" stroke="none" 
	d="
M128.700699,221.593307 
	C126.470421,223.419128 124.240150,225.244965 121.509148,226.800934 
	C120.679512,225.085602 120.350601,223.640106 120.314056,221.999283 
	C125.497482,217.185165 125.105270,214.515564 119.000603,210.498383 
	C118.998398,208.763260 118.999863,207.428558 119.001328,206.093857 
	C122.476913,207.402695 125.087898,206.521439 127.620361,203.659897 
	C129.894821,201.089905 132.919189,199.183578 135.547226,197.037994 
	C132.658035,192.644943 130.590225,189.500809 128.216354,185.891296 
	C124.632034,189.357895 121.207329,192.670135 117.317688,195.805206 
	C116.041306,194.293762 115.229851,192.959457 114.418396,191.625153 
	C122.985283,185.147308 128.143585,177.384399 124.157104,166.095871 
	C123.897507,165.360779 123.918854,164.368927 124.182983,163.630005 
	C128.361572,151.939713 117.990730,147.972977 112.382668,141.524536 
	C112.052437,141.144821 110.672981,141.677582 109.235649,141.723694 
	C107.793457,140.417999 106.897415,139.174316 106.001373,137.930634 
	C107.568130,136.265015 109.134888,134.599396 111.185287,132.419617 
	C116.249138,138.020126 121.083099,143.366394 126.408836,149.256561 
	C129.793518,144.048065 132.253723,140.262207 135.369568,135.467407 
	C132.501083,132.966095 129.371429,130.500122 126.567383,127.707222 
	C124.393852,125.542328 122.323280,124.882645 119.372734,126.272339 
	C119.022591,124.297958 119.011528,122.721970 119.341400,121.038101 
	C125.650978,116.990921 125.417198,113.177750 119.003067,109.415909 
	C119.032867,107.564362 119.062195,106.139931 119.091522,104.715500 
	C125.791946,105.630928 130.694275,110.309219 129.228256,116.065269 
	C127.904976,121.260880 130.302582,123.707008 133.377777,126.524727 
	C134.593872,127.639015 135.687439,128.887009 136.899323,130.744324 
	C137.337921,134.678177 137.713989,137.941849 137.977905,141.526825 
	C136.274094,144.555252 134.353424,147.123856 133.145813,149.992630 
	C126.780540,165.113861 129.230270,179.090454 138.828186,192.276138 
	C136.778503,195.176956 136.915237,197.670822 138.885834,200.298737 
	C138.209641,201.025024 137.732437,201.480682 137.275299,201.955643 
	C132.886154,206.515533 126.702515,210.162018 129.321625,218.225845 
	C129.631653,219.180405 128.932205,220.462860 128.700699,221.593307 
z"/>
<path fill="#2E2CB9" opacity="1.000000" stroke="none" 
	d="
M105.710037,138.080780 
	C106.897415,139.174316 107.793457,140.417999 108.935349,141.882782 
	C106.693642,144.722000 104.206108,147.340088 101.026466,150.686630 
	C96.378448,145.767166 92.219185,141.027634 87.644951,136.729767 
	C86.277504,135.444931 83.670357,134.695404 81.768341,134.910950 
	C76.106636,135.552536 71.480598,133.756561 69.035675,129.227753 
	C66.860519,125.198647 67.625015,119.509331 70.778412,116.258575 
	C74.130920,112.802559 79.850090,111.864380 84.120338,114.069946 
	C88.712845,116.441948 90.636925,120.958786 89.898758,126.715187 
	C89.700790,128.259048 89.980499,130.329651 90.898361,131.465683 
	C93.911484,135.194977 97.318787,138.605774 100.792892,142.375839 
	C102.782196,140.593338 104.100441,139.412125 105.710037,138.080780 
M73.453705,124.391785 
	C74.375626,128.363251 77.059677,130.432632 80.689392,128.747070 
	C82.410568,127.947784 83.895119,124.644623 83.781960,122.568756 
	C83.702377,121.108635 80.887825,118.921722 79.044250,118.627556 
	C75.835388,118.115524 73.984428,120.493027 73.453705,124.391785 
z"/>
<path fill="#362BB5" opacity="1.000000" stroke="none" 
	d="
M121.825363,97.351624 
	C117.016304,94.153801 114.612350,89.954636 115.315834,83.918297 
	C115.870796,79.156265 115.387123,74.784935 111.724701,70.606300 
	C107.785812,66.112251 110.073570,58.548332 115.211868,55.422066 
	C120.346268,52.298172 127.517365,53.924816 130.665771,58.927528 
	C133.956451,64.156303 132.134216,71.360573 126.793823,74.628792 
	C124.858704,75.813049 121.591843,77.167992 121.507652,78.596779 
	C121.238228,83.169044 119.436508,88.358757 123.920486,92.791306 
	C123.206490,94.726067 122.515923,96.038849 121.825363,97.351624 
M118.546318,59.973232 
	C115.614868,62.247654 114.598480,65.367439 117.059738,68.073631 
	C118.328506,69.468658 122.036407,70.331169 123.456543,69.472763 
	C125.202812,68.417229 126.854736,65.110939 126.503319,63.142410 
	C125.887787,59.694305 122.949387,58.163799 118.546318,59.973232 
z"/>
<path fill="#5430BB" opacity="1.000000" stroke="none" 
	d="
M192.323669,106.162178 
	C189.839767,103.576126 187.662872,101.158516 184.515442,97.663063 
	C188.856201,93.772812 193.112442,89.958321 197.747223,86.319221 
	C198.796661,87.681801 199.467575,88.868996 200.112061,90.284149 
	C200.085648,90.512115 200.155304,90.965805 199.975647,91.254044 
	C197.351044,93.552734 194.906113,95.563202 191.094223,98.697723 
	C195.851669,102.263184 199.430969,104.945686 203.788239,108.211243 
	C197.455902,114.128326 192.148026,119.088135 186.675659,124.201645 
	C191.229324,127.113098 195.129288,129.606598 199.013885,132.500122 
	C198.656906,134.973969 198.315308,137.047806 197.684906,138.943741 
	C191.242615,132.353516 183.497253,128.954330 175.096191,126.600052 
	C175.451904,124.874191 175.729797,123.491882 176.007690,122.109573 
	C177.747147,122.081444 180.117401,122.774704 181.117081,121.900566 
	C185.493607,118.073692 189.537857,113.852844 193.498550,109.585503 
	C193.905655,109.146889 192.952591,107.445862 192.323669,106.162178 
z"/>
<path fill="#2A2CB7" opacity="1.000000" stroke="none" 
	d="
M90.035011,219.265961 
	C87.219749,219.384781 84.358482,219.235687 81.604042,219.708679 
	C79.469620,220.075226 77.170891,220.820938 75.466080,222.095047 
	C70.909554,225.500473 65.943703,226.129608 61.610447,223.322525 
	C57.500496,220.660065 55.645828,215.950089 56.837276,211.200928 
	C58.052956,206.355179 61.821857,203.211304 66.796028,202.893738 
	C72.263336,202.544678 76.217735,205.148193 78.308144,210.491653 
	C78.670372,211.417572 78.975906,212.365662 79.560669,214.018890 
	C82.567070,214.018890 85.832115,214.018890 89.547501,214.445892 
	C90.010231,216.337265 90.022621,217.801605 90.035011,219.265961 
M72.093849,210.712662 
	C69.804611,208.052994 66.794403,207.297699 64.392982,209.732544 
	C63.045334,211.098953 62.240589,214.496841 63.025578,216.055786 
	C63.833229,217.659760 67.018776,219.171555 68.903160,218.901947 
	C73.040588,218.309982 73.652824,215.005356 72.093849,210.712662 
z"/>
<path fill="#4630BE" opacity="1.000000" stroke="none" 
	d="
M138.090073,141.205521 
	C137.713989,137.941849 137.337921,134.678177 137.057098,131.027313 
	C138.452789,130.721191 140.031372,131.313370 141.000595,130.785904 
	C143.722549,129.304565 146.193390,127.361771 149.223297,125.285774 
	C145.115646,121.068901 141.137054,116.984520 137.151077,112.280785 
	C137.874390,110.389038 138.605072,109.116638 139.335754,107.844238 
	C143.547256,111.930817 147.713684,116.065575 151.998215,120.074089 
	C153.253265,121.248276 154.843964,122.063705 156.625153,123.446442 
	C156.649704,125.499664 156.329910,127.150009 155.681351,128.954102 
	C149.598404,133.140396 143.844238,137.172958 138.090073,141.205521 
z"/>
<path fill="#342DBB" opacity="1.000000" stroke="none" 
	d="
M90.399437,219.353546 
	C90.022621,217.801605 90.010231,216.337265 90.001083,214.504913 
	C91.973038,212.709427 94.140404,211.488113 95.874542,209.817169 
	C101.956848,203.956497 107.889977,197.940964 114.149071,191.804688 
	C115.229851,192.959457 116.041306,194.293762 117.026978,195.977570 
	C110.197586,203.443008 103.279373,210.647156 96.108208,217.589996 
	C94.880318,218.778809 92.572701,218.852386 90.399437,219.353546 
z"/>
<path fill="#342DBB" opacity="1.000000" stroke="none" 
	d="
M120.021683,222.194611 
	C120.350601,223.640106 120.679512,225.085602 121.177330,226.863068 
	C121.346237,227.195053 121.179985,227.587479 121.085571,227.778519 
	C112.674080,227.833893 107.674118,224.111603 107.075920,217.610199 
	C106.483673,211.173447 111.153534,206.275940 118.597366,206.022308 
	C118.999863,207.428558 118.998398,208.763260 118.633392,210.571121 
	C114.737823,211.771805 112.484665,213.683701 113.016174,217.539139 
	C113.569778,221.554855 116.642441,222.206131 120.021683,222.194611 
z"/>
<path fill="#342DBB" opacity="1.000000" stroke="none" 
	d="
M119.000473,121.145973 
	C119.011528,122.721970 119.022591,124.297958 119.044617,126.266937 
	C111.849663,126.247192 107.323792,122.281715 107.018723,116.113449 
	C106.704689,109.764290 111.102783,105.293404 118.774307,104.600616 
	C119.062195,106.139931 119.032867,107.564362 118.627029,109.480522 
	C114.761375,110.387924 112.784477,112.274445 112.982307,115.864296 
	C113.185104,119.544243 115.696281,120.861259 119.000473,121.145973 
z"/>
<path fill="#4A2EB8" opacity="1.000000" stroke="none" 
	d="
M156.010132,128.800354 
	C156.329910,127.150009 156.649704,125.499664 156.985291,123.483055 
	C163.068802,122.713554 169.136536,122.310318 175.605972,122.008331 
	C175.729797,123.491882 175.451904,124.874191 174.631973,126.634415 
	C168.063324,127.608330 162.036728,128.204346 156.010132,128.800354 
z"/>
<path fill="#3D2FBE" opacity="1.000000" stroke="none" 
	d="
M139.167435,107.546478 
	C138.605072,109.116638 137.874390,110.389038 136.991150,111.998093 
	C131.945007,107.525764 127.051407,102.716766 121.991577,97.629700 
	C122.515923,96.038849 123.206490,94.726067 124.105026,93.107246 
	C129.208359,97.617043 134.103745,102.432877 139.167435,107.546478 
z"/>
<path fill="#0B0F28" opacity="1.000000" stroke="none" 
	d="
M253.009888,217.978851 
	C251.550537,225.424957 245.520676,229.314285 240.001373,232.858078 
	C234.149811,236.615204 232.171585,241.505096 232.140854,247.748810 
	C232.118942,252.198471 232.522873,256.651031 232.763245,261.100891 
	C232.977631,265.069946 232.739349,268.810883 228.066956,270.343445 
	C227.420166,267.314423 228.051804,263.594635 226.504593,262.031372 
	C221.592606,257.068512 222.777100,251.191559 222.417618,245.387009 
	C222.275238,243.088242 221.758942,240.236679 220.296844,238.695877 
	C214.154510,232.222916 207.590012,226.150543 201.014923,219.635376 
	C196.845657,215.245712 192.841553,211.152206 188.869995,207.091934 
	C192.286285,204.494736 195.171661,202.301147 198.380219,200.183044 
	C201.322830,202.751083 203.819336,205.392303 206.598724,207.691513 
	C209.043671,209.714035 209.853165,212.010544 208.877899,215.393555 
	C208.968399,224.424667 214.598145,229.118530 222.724548,227.132843 
	C229.402451,224.367203 232.085587,219.556870 230.459030,213.865952 
	C228.771820,207.962906 224.035492,205.177505 217.371628,205.946228 
	C215.746597,206.133682 213.586975,206.308731 212.473282,205.450806 
	C208.962112,202.745972 205.830994,199.547760 202.680298,196.657440 
	C205.696030,191.953766 208.139526,188.142593 210.710678,184.132309 
	C214.993851,188.206970 219.057892,192.073181 223.268250,196.204865 
	C224.454742,197.437317 225.494919,198.404312 226.770935,199.590515 
	C230.069839,196.248032 233.126633,193.150864 236.477188,190.190048 
	C240.270065,193.758072 243.876831,197.090225 247.199860,200.684677 
	C248.143417,201.705307 248.260406,203.490097 248.527771,205.241699 
	C246.941132,210.809570 249.299118,214.650757 253.009888,217.978851 
z"/>
<path fill="#5E31BC" opacity="1.000000" stroke="none" 
	d="
M223.121933,195.939392 
	C219.057892,192.073181 214.993851,188.206970 210.710678,184.132309 
	C208.139526,188.142593 205.696030,191.953766 202.680298,196.657440 
	C205.830994,199.547760 208.962112,202.745972 212.473282,205.450806 
	C213.586975,206.308731 215.746597,206.133682 217.371628,205.946228 
	C224.035492,205.177505 228.771820,207.962906 230.459030,213.865952 
	C232.085587,219.556870 229.402451,224.367203 222.483765,226.928162 
	C221.602463,225.237198 221.309784,223.726746 221.349701,222.065430 
	C224.975723,220.173004 226.098618,217.397324 224.433701,214.167725 
	C222.580917,210.573715 219.407257,210.491913 215.779678,212.126740 
	C213.341553,213.048584 211.171494,214.018265 209.001434,214.987946 
	C209.853165,212.010544 209.043671,209.714035 206.598724,207.691513 
	C203.819336,205.392303 201.322830,202.751083 198.313675,199.804779 
	C197.630463,197.586121 197.336960,195.821243 197.199677,193.760559 
	C211.934525,176.597137 212.147842,157.832352 197.973694,139.121628 
	C198.315308,137.047806 198.656906,134.973969 199.263550,132.278961 
	C202.226364,128.950424 205.053070,126.355133 207.554199,123.476936 
	C208.469864,122.423210 209.194214,120.621452 209.017975,119.291847 
	C207.480179,107.689095 213.629669,102.348724 224.997070,105.607430 
	C230.596161,109.901932 232.227814,114.487015 230.026062,119.739136 
	C227.759598,125.145599 223.254456,127.106354 216.057541,126.124702 
	C214.794617,125.952438 213.360596,126.684631 212.076019,127.181267 
	C211.507416,127.401100 211.130661,128.092926 210.638885,128.539764 
	C208.058517,130.884430 205.469162,133.219208 202.709396,135.714264 
	C205.266632,139.531921 207.420944,142.748108 210.559479,147.433594 
	C214.250534,143.201309 217.507217,139.467072 221.256760,135.815475 
	C222.792572,136.905701 223.835510,137.913300 224.878479,138.920898 
	C221.301605,142.621353 217.577942,146.195755 214.230972,150.093613 
	C213.124771,151.381882 212.501907,153.503403 212.498810,155.245438 
	C212.487671,161.503784 212.671814,167.775009 213.136047,174.015015 
	C213.302322,176.250015 213.925430,178.865875 215.295624,180.512985 
	C218.473114,184.332718 222.233139,187.667862 225.808884,191.782837 
	C224.947800,193.557281 224.034866,194.748337 223.121933,195.939392 
M214.401581,116.984894 
	C215.707108,120.192665 218.277710,122.100990 221.344009,120.542419 
	C223.216232,119.590805 225.234299,116.523865 225.044830,114.620178 
	C224.868973,112.853165 221.990158,110.240067 220.052139,109.998306 
	C216.153854,109.512016 214.316879,112.410431 214.401581,116.984894 
z"/>
<path fill="#5C2FB7" opacity="1.000000" stroke="none" 
	d="
M201.180084,219.931519 
	C207.590012,226.150543 214.154510,232.222916 220.296844,238.695877 
	C221.758942,240.236679 222.275238,243.088242 222.417618,245.387009 
	C222.777100,251.191559 221.592606,257.068512 226.504593,262.031372 
	C228.051804,263.594635 227.420166,267.314423 227.727722,270.467865 
	C224.951645,275.732391 221.113190,278.856995 215.273651,277.874542 
	C209.725510,276.941162 206.829437,273.188690 205.960144,267.045715 
	C205.945419,265.894836 205.940262,265.449921 205.935120,265.005035 
	C206.110031,264.627441 206.284927,264.249878 206.683243,263.296082 
	C208.010544,261.178650 209.114441,259.637482 210.218338,258.096283 
	C211.057144,257.717041 211.895935,257.337769 213.336609,256.737793 
	C214.641327,256.267151 215.344208,256.017242 216.225632,255.741013 
	C216.658585,255.575623 216.738602,255.369034 216.706253,254.746902 
	C216.728012,253.931213 216.687790,253.463516 216.647552,252.995834 
	C216.692566,251.607101 216.737564,250.218369 216.783783,248.024719 
	C216.217865,245.243973 216.228043,242.733215 214.981003,241.387421 
	C210.253525,236.285614 205.118912,231.561096 200.136566,226.695465 
	C199.848343,226.254700 199.560120,225.813934 199.220856,224.794556 
	C199.839905,222.787811 200.509995,221.359665 201.180084,219.931519 
M212.072586,264.558777 
	C210.481323,267.563049 211.104187,270.435699 213.964676,271.788300 
	C215.678604,272.598724 218.861038,272.461121 220.184601,271.337494 
	C221.529099,270.196106 222.199051,267.129852 221.750366,265.242737 
	C220.827499,261.361176 216.741913,260.950073 212.072586,264.558777 
z"/>
<path fill="#0C112A" opacity="1.000000" stroke="none" 
	d="
M313.815826,159.945831 
	C311.681427,160.925781 309.928925,161.988007 308.030609,162.446503 
	C301.419983,164.043274 295.424774,158.112030 296.831360,151.246735 
	C298.370941,143.732315 303.268188,138.638931 310.459442,136.968719 
	C313.293640,136.310440 317.483246,138.290100 320.015442,140.348282 
	C323.098389,142.854141 323.939178,147.220352 321.767090,150.816574 
	C319.768646,154.125183 316.718018,156.798248 313.815826,159.945831 
z"/>
<path fill="#722FB6" opacity="1.000000" stroke="none" 
	d="
M253.023712,113.068550 
	C258.701965,114.336601 262.311981,110.215065 266.890381,107.702728 
	C272.192780,106.518196 277.215546,107.516792 279.218628,112.110420 
	C280.728546,115.573135 280.626923,120.513794 279.407013,124.186989 
	C278.015869,128.375809 273.507996,129.683228 269.028900,129.285904 
	C264.654663,128.897888 261.269623,126.530945 260.125183,122.451599 
	C259.097870,118.789810 257.259735,117.644730 253.430634,117.593582 
	C253.018143,115.769043 253.020935,114.418793 253.023712,113.068550 
M265.037811,116.831497 
	C265.960388,118.942924 266.422058,121.556084 267.974304,122.982132 
	C268.942566,123.871704 272.104401,123.648788 273.291107,122.693878 
	C274.688354,121.569527 275.778046,119.025017 275.573273,117.262161 
	C275.395813,115.734428 273.171539,113.244637 271.945343,113.298676 
	C269.681458,113.398438 267.486023,115.050148 265.037811,116.831497 
z"/>
<path fill="#6D30B8" opacity="1.000000" stroke="none" 
	d="
M248.756439,204.924454 
	C248.260406,203.490097 248.143417,201.705307 247.199860,200.684677 
	C243.876831,197.090225 240.270065,193.758072 236.111664,190.147079 
	C233.971893,189.279816 232.491379,188.591873 231.010864,187.903931 
	C232.710464,186.096634 234.410049,184.289337 236.864197,181.679688 
	C241.174652,186.200119 245.148071,190.617630 249.424622,194.719070 
	C250.966705,196.197998 253.236694,196.917969 255.922531,198.035934 
	C260.797913,198.594528 263.189789,200.956924 264.005219,204.996246 
	C263.976868,205.018036 263.920227,205.061661 263.610138,204.865341 
	C259.666870,201.606369 256.563568,202.374039 253.485001,205.922470 
	C251.663910,205.554123 250.210175,205.239288 248.756439,204.924454 
z"/>
<path fill="#6931BC" opacity="1.000000" stroke="none" 
	d="
M252.576172,112.998367 
	C253.020935,114.418793 253.018143,115.769043 253.021713,117.524323 
	C247.707794,117.248962 244.085510,119.834969 240.632172,123.614891 
	C235.846527,128.853073 230.551880,133.626221 225.176819,138.759689 
	C223.835510,137.913300 222.792572,136.905701 221.515167,135.611664 
	C228.011169,128.541199 234.417999,121.378899 241.655487,115.187622 
	C244.043381,113.144913 248.576431,113.609840 252.576172,112.998367 
z"/>
<path fill="#6D30B8" opacity="1.000000" stroke="none" 
	d="
M269.106262,212.031418 
	C266.514008,218.235779 263.257050,219.916885 255.513687,218.492859 
	C255.884903,216.652893 256.472107,215.255905 257.441345,213.855408 
	C263.911438,213.126831 265.320892,211.094727 263.920227,205.061661 
	C263.920227,205.061661 263.976868,205.018036 264.297302,205.160599 
	C266.113922,207.545914 267.610077,209.788666 269.106262,212.031418 
z"/>
<path fill="#632CAF" opacity="1.000000" stroke="none" 
	d="
M257.059326,213.858917 
	C256.472107,215.255905 255.884903,216.652893 255.176788,218.347992 
	C254.552185,218.449692 254.048523,218.253296 253.277374,218.017883 
	C249.299118,214.650757 246.941132,210.809570 248.527771,205.241699 
	C250.210175,205.239288 251.663910,205.554123 253.480103,206.249619 
	C254.914825,209.039825 255.987061,211.449371 257.059326,213.858917 
z"/>
<path fill="#572DB4" opacity="1.000000" stroke="none" 
	d="
M230.724365,188.048950 
	C232.491379,188.591873 233.971893,189.279816 235.817902,190.010727 
	C233.126633,193.150864 230.069839,196.248032 226.770935,199.590515 
	C225.494919,198.404312 224.454742,197.437317 223.268250,196.204865 
	C224.034866,194.748337 224.947800,193.557281 225.981674,192.059418 
	C227.547684,190.566376 228.992767,189.380173 230.724365,188.048950 
z"/>
<path fill="#632CAF" opacity="1.000000" stroke="none" 
	d="
M269.395233,211.753723 
	C267.610077,209.788666 266.113922,207.545914 264.325653,205.138809 
	C263.189789,200.956924 260.797913,198.594528 256.298462,198.029419 
	C264.830292,195.495438 270.868530,201.422592 269.395233,211.753723 
z"/>
<path fill="#0A0F26" opacity="1.000000" stroke="none" 
	d="
M209.775589,258.079041 
	C209.114441,259.637482 208.010544,261.178650 206.744720,262.989502 
	C204.524673,261.347900 202.466553,259.436646 200.203949,257.263672 
	C203.110596,257.355255 206.221710,257.708557 209.775589,258.079041 
z"/>
<path fill="#0A0F26" opacity="1.000000" stroke="none" 
	d="
M205.810852,265.125244 
	C205.940262,265.449921 205.945419,265.894836 205.889038,266.668579 
	C205.780548,266.413422 205.733566,265.829437 205.810852,265.125244 
z"/>
<path fill="#0A0E26" opacity="1.000000" stroke="none" 
	d="
M224.877197,105.248047 
	C213.629669,102.348724 207.480179,107.689095 209.017975,119.291847 
	C209.194214,120.621452 208.469864,122.423210 207.554199,123.476936 
	C205.053070,126.355133 202.226364,128.950424 199.278931,131.878937 
	C195.129288,129.606598 191.229324,127.113098 186.675659,124.201645 
	C192.148026,119.088135 197.455902,114.128326 203.788239,108.211243 
	C199.430969,104.945686 195.851669,102.263184 191.094223,98.697723 
	C194.906113,95.563202 197.351044,93.552734 200.117523,91.123383 
	C200.625381,90.527092 200.805435,90.343559 201.268295,89.968719 
	C203.685059,87.380188 205.738571,85.478325 209.535797,86.929962 
	C211.319046,87.611687 213.711487,86.699944 215.827850,86.510315 
	C215.608261,91.911613 217.543030,96.349731 221.479813,100.084785 
	C222.854309,101.388855 223.680649,103.270691 224.877197,105.248047 
z"/>
<path fill="#5C2FB7" opacity="1.000000" stroke="none" 
	d="
M216.085617,86.312317 
	C213.711487,86.699944 211.319046,87.611687 209.535797,86.929962 
	C205.738571,85.478325 203.685059,87.380188 201.060638,89.922722 
	C200.563919,90.061897 200.138489,90.056175 200.138489,90.056183 
	C199.467575,88.868996 198.796661,87.681801 198.044525,86.154892 
	C200.265961,83.486145 201.360931,81.222328 200.272171,77.537933 
	C198.895386,72.878754 202.245529,67.853035 206.806778,65.976814 
	C211.487640,64.051392 216.651932,65.302963 219.875031,69.143875 
	C222.993988,72.860703 223.309494,78.624550 220.364471,82.509903 
	C219.296997,83.918221 217.699203,84.924553 216.085617,86.312317 
M210.010391,70.483101 
	C206.767197,71.756226 205.031693,74.312347 206.186264,77.481964 
	C206.831726,79.253906 209.253220,81.397568 210.966385,81.480804 
	C212.746429,81.567299 215.296188,79.779968 216.344193,78.089668 
	C218.604156,74.444550 216.126831,71.262390 210.010391,70.483101 
z"/>
<path fill="#442FBC" opacity="1.000000" stroke="none" 
	d="
M139.094116,200.037048 
	C136.915237,197.670822 136.778503,195.176956 139.121216,192.442657 
	C146.938248,200.537918 156.330139,204.435120 166.815796,205.656311 
	C165.743561,207.163834 164.936188,208.514862 164.029007,209.976685 
	C163.929214,210.087463 163.729706,210.309082 163.447281,210.265930 
	C162.787552,210.168976 162.410263,210.115189 162.032959,210.061386 
	C158.438644,209.328293 155.578018,210.451187 153.428406,213.428635 
	C153.141815,213.825592 152.722015,214.123672 152.387589,214.489212 
	C149.511124,217.633286 144.765594,220.557022 144.351730,224.000122 
	C144.011612,226.829987 148.817169,230.278336 151.800674,234.029129 
	C148.277374,237.840057 144.523636,241.900269 140.342804,245.795425 
	C139.278320,244.080887 138.640930,242.531433 138.003525,240.981964 
	C140.188675,238.549927 142.373825,236.117889 144.555115,233.690155 
	C142.010925,230.608551 139.541443,227.617432 137.003113,223.951111 
	C137.777054,221.954498 138.451965,220.479797 139.493057,219.339371 
	C143.118256,215.368240 146.870270,211.512863 150.533081,207.656677 
	C146.714310,205.112946 142.904205,202.574997 139.094116,200.037048 
z"/>
<path fill="#5430BB" opacity="1.000000" stroke="none" 
	d="
M164.128815,209.865906 
	C164.936188,208.514862 165.743561,207.163834 167.213776,205.647400 
	C168.942596,205.470413 170.008575,205.458832 171.317551,205.496368 
	C172.370895,205.436539 173.181244,205.327606 174.378693,205.128540 
	C183.377884,203.783981 190.581451,199.672318 197.043442,194.056351 
	C197.336960,195.821243 197.630463,197.586121 197.990509,199.729279 
	C195.171661,202.301147 192.286285,204.494736 188.869995,207.091934 
	C192.841553,211.152206 196.845657,215.245712 201.014923,219.635376 
	C200.509995,221.359665 199.839905,222.787811 199.107635,224.555084 
	C194.672119,220.633179 190.197891,216.469193 185.967758,212.070450 
	C183.836411,209.854172 181.927139,208.876434 178.655792,209.776245 
	C175.213287,210.723160 171.475876,210.597916 167.146179,210.744049 
	C165.659607,210.319916 164.894211,210.092911 164.128815,209.865906 
z"/>
<path fill="#080B21" opacity="1.000000" stroke="none" 
	d="
M138.885834,200.298737 
	C142.904205,202.574997 146.714310,205.112946 150.533081,207.656677 
	C146.870270,211.512863 143.118256,215.368240 139.493057,219.339371 
	C138.451965,220.479797 137.777054,221.954498 136.852997,223.635986 
	C134.289749,223.348434 131.807755,222.700851 129.013245,221.823273 
	C128.932205,220.462860 129.631653,219.180405 129.321625,218.225845 
	C126.702515,210.162018 132.886154,206.515533 137.275299,201.955643 
	C137.732437,201.480682 138.209641,201.025024 138.885834,200.298737 
z"/>
<path fill="#0A0F26" opacity="1.000000" stroke="none" 
	d="
M163.337051,239.682877 
	C172.017456,238.605835 180.522797,237.782211 189.035126,237.038635 
	C189.611588,236.988281 190.432419,237.381409 190.813324,237.839554 
	C192.849869,240.289078 194.782654,242.824829 196.751328,245.330765 
	C193.941284,245.846207 191.041626,247.078339 188.338272,246.740356 
	C180.754791,245.792252 173.234238,244.284607 165.739227,242.751419 
	C164.732178,242.545395 164.015030,240.922211 163.337051,239.682877 
z"/>
<path fill="#080B21" opacity="1.000000" stroke="none" 
	d="
M157.327759,284.649780 
	C153.240128,280.073730 149.378143,275.768311 145.521545,271.458099 
	C143.489990,269.187561 141.025116,266.750000 144.321594,263.900238 
	C147.377380,261.258575 149.859390,263.174561 151.812683,265.799469 
	C156.150681,271.629028 160.611526,277.383270 164.595871,283.448395 
	C165.577438,284.942596 164.924591,287.510529 165.023117,289.584839 
	C163.215820,288.752106 161.351318,288.020294 159.626068,287.042755 
	C158.799942,286.574646 158.237518,285.641144 157.327759,284.649780 
z"/>
<path fill="#3D2DB9" opacity="1.000000" stroke="none" 
	d="
M137.710724,241.151001 
	C138.640930,242.531433 139.278320,244.080887 140.052856,245.965820 
	C137.948318,248.656662 136.885605,250.892014 137.712524,254.633759 
	C139.313782,261.879425 133.283737,267.265472 124.505157,266.553284 
	C124.836723,264.723022 125.518776,263.314453 126.538086,261.806305 
	C133.231293,259.286865 133.974075,255.508194 128.713989,250.671234 
	C125.794319,249.712112 123.703033,248.546829 124.988258,245.213699 
	C129.493195,245.070465 134.632996,246.953918 137.710724,241.151001 
z"/>
<path fill="#362BB5" opacity="1.000000" stroke="none" 
	d="
M124.636147,245.230392 
	C123.703033,248.546829 125.794319,249.712112 128.304169,250.658356 
	C124.863808,250.396866 122.259560,251.462448 121.465866,254.929993 
	C120.588730,258.762115 123.247826,260.507141 126.200821,261.905884 
	C125.518776,263.314453 124.836723,264.723022 124.088074,266.465393 
	C118.278625,264.566559 115.511185,261.021912 115.544052,255.940948 
	C115.576599,250.908875 118.349716,247.515808 124.636147,245.230392 
z"/>
<path fill="#0A0F26" opacity="1.000000" stroke="none" 
	d="
M200.192780,227.065002 
	C205.118912,231.561096 210.253525,236.285614 214.981003,241.387421 
	C216.228043,242.733215 216.217865,245.243973 216.715179,247.612396 
	C215.599686,247.514038 214.161575,247.306137 213.570663,246.487061 
	C209.037369,240.203125 204.668747,233.800385 200.192780,227.065002 
z"/>
<path fill="#0A0F26" opacity="1.000000" stroke="none" 
	d="
M216.047089,255.767365 
	C215.344208,256.017242 214.641327,256.267151 213.571732,256.589661 
	C214.146561,255.516800 215.088120,254.371338 216.338623,253.110840 
	C216.687790,253.463516 216.728012,253.931213 216.603699,254.856079 
	C216.304352,255.461075 216.173676,255.612442 216.047089,255.767365 
z"/>
<path fill="#442FBC" opacity="1.000000" stroke="none" 
	d="
M164.029022,209.976685 
	C164.894211,210.092911 165.659607,210.319916 166.703003,210.665466 
	C166.171112,210.770981 165.361252,210.757950 164.158386,210.564774 
	C163.765381,210.384628 163.729706,210.309082 163.729706,210.309082 
	C163.729706,210.309082 163.929214,210.087463 164.029022,209.976685 
z"/>
<path fill="#5430BB" opacity="1.000000" stroke="none" 
	d="
M163.447281,210.265930 
	C163.729706,210.309082 163.765381,210.384628 163.778793,210.421814 
	C163.332825,210.416946 162.873459,210.374908 162.223511,210.197128 
	C162.410263,210.115189 162.787552,210.168976 163.447281,210.265930 
z"/>
<path fill="#0A0E28" opacity="1.000000" stroke="none" 
	d="
M197.199677,193.760559 
	C190.581451,199.672318 183.377884,203.783981 174.010162,205.098618 
	C172.527847,205.254974 171.801193,205.351120 171.074539,205.447266 
	C170.008575,205.458832 168.942596,205.470413 167.478638,205.490875 
	C156.330139,204.435120 146.938248,200.537918 139.322754,192.159790 
	C129.230270,179.090454 126.780540,165.113861 133.145813,149.992630 
	C134.353424,147.123856 136.274094,144.555252 137.977905,141.526825 
	C143.844238,137.172958 149.598404,133.140396 155.681335,128.954102 
	C162.036728,128.204346 168.063324,127.608330 174.554138,126.977966 
	C183.497253,128.954330 191.242615,132.353516 197.684921,138.943741 
	C212.147842,157.832352 211.934525,176.597137 197.199677,193.760559 
M156.280930,135.008301 
	C140.479706,141.778564 132.412277,157.368027 136.129333,173.949097 
	C139.889542,190.722610 158.624619,203.075623 174.963943,199.077271 
	C190.409668,196.448181 201.847656,183.552673 202.821564,167.669800 
	C203.745956,152.594345 193.174362,138.137283 177.481964,133.522186 
	C170.506454,131.850754 163.639191,131.736572 156.280930,135.008301 
z"/>
<path fill="#0A0E26" opacity="1.000000" stroke="none" 
	d="
M119.341400,121.038101 
	C115.696281,120.861259 113.185104,119.544243 112.982307,115.864296 
	C112.784477,112.274445 114.761375,110.387924 118.626556,109.907639 
	C125.417198,113.177750 125.650978,116.990921 119.341400,121.038101 
z"/>
<path fill="#0A0E26" opacity="1.000000" stroke="none" 
	d="
M120.314056,221.999283 
	C116.642441,222.206131 113.569778,221.554855 113.016174,217.539139 
	C112.484665,213.683701 114.737823,211.771805 118.637070,210.971527 
	C125.105270,214.515564 125.497482,217.185165 120.314056,221.999283 
z"/>
<path fill="#080B21" opacity="1.000000" stroke="none" 
	d="
M73.434387,124.027008 
	C73.984428,120.493027 75.835388,118.115524 79.044250,118.627556 
	C80.887825,118.921722 83.702377,121.108635 83.781960,122.568756 
	C83.895119,124.644623 82.410568,127.947784 80.689392,128.747070 
	C77.059677,130.432632 74.375626,128.363251 73.434387,124.027008 
z"/>
<path fill="#0A0D24" opacity="1.000000" stroke="none" 
	d="
M118.888802,59.778648 
	C122.949387,58.163799 125.887787,59.694305 126.503319,63.142410 
	C126.854736,65.110939 125.202812,68.417229 123.456543,69.472763 
	C122.036407,70.331169 118.328506,69.468658 117.059738,68.073631 
	C114.598480,65.367439 115.614868,62.247654 118.888802,59.778648 
z"/>
<path fill="#0A0F26" opacity="1.000000" stroke="none" 
	d="
M200.112061,90.284149 
	C200.138489,90.056175 200.563919,90.061897 200.771576,90.107895 
	C200.805435,90.343559 200.625381,90.527092 200.297195,90.835152 
	C200.155304,90.965805 200.085648,90.512115 200.112061,90.284149 
z"/>
<path fill="#0A0E26" opacity="1.000000" stroke="none" 
	d="
M72.320572,211.026505 
	C73.652824,215.005356 73.040588,218.309982 68.903160,218.901947 
	C67.018776,219.171555 63.833229,217.659760 63.025578,216.055786 
	C62.240589,214.496841 63.045334,211.098953 64.392982,209.732544 
	C66.794403,207.297699 69.804611,208.052994 72.320572,211.026505 
z"/>
<path fill="#572DB4" opacity="1.000000" stroke="none" 
	d="
M208.877899,215.393555 
	C211.171494,214.018265 213.341553,213.048584 215.612122,212.437958 
	C212.671448,218.495026 214.363144,221.499023 221.017105,222.216309 
	C221.309784,223.726746 221.602463,225.237198 222.135956,226.952301 
	C214.598145,229.118530 208.968399,224.424667 208.877899,215.393555 
z"/>
<path fill="#0B1029" opacity="1.000000" stroke="none" 
	d="
M214.300385,116.614410 
	C214.316879,112.410431 216.153854,109.512016 220.052139,109.998306 
	C221.990158,110.240067 224.868973,112.853165 225.044830,114.620178 
	C225.234299,116.523865 223.216232,119.590805 221.344009,120.542419 
	C218.277710,122.100990 215.707108,120.192665 214.300385,116.614410 
z"/>
<path fill="#0B1029" opacity="1.000000" stroke="none" 
	d="
M221.349701,222.065430 
	C214.363144,221.499023 212.671448,218.495026 215.880188,212.485779 
	C219.407257,210.491913 222.580917,210.573715 224.433701,214.167725 
	C226.098618,217.397324 224.975723,220.173004 221.349701,222.065430 
z"/>
<path fill="#0C112A" opacity="1.000000" stroke="none" 
	d="
M212.292603,264.240723 
	C216.741913,260.950073 220.827499,261.361176 221.750366,265.242737 
	C222.199051,267.129852 221.529099,270.196106 220.184601,271.337494 
	C218.861038,272.461121 215.678604,272.598724 213.964676,271.788300 
	C211.104187,270.435699 210.481323,267.563049 212.292603,264.240723 
z"/>
<path fill="#0A0E24" opacity="1.000000" stroke="none" 
	d="
M216.225632,255.741028 
	C216.173676,255.612442 216.304352,255.461075 216.541687,255.204071 
	C216.738602,255.369034 216.658585,255.575623 216.225632,255.741028 
z"/>
<path fill="#0C112A" opacity="1.000000" stroke="none" 
	d="
M265.149933,116.443390 
	C267.486023,115.050148 269.681458,113.398438 271.945343,113.298676 
	C273.171539,113.244637 275.395813,115.734428 275.573273,117.262161 
	C275.778046,119.025017 274.688354,121.569527 273.291107,122.693878 
	C272.104401,123.648788 268.942566,123.871704 267.974304,122.982132 
	C266.422058,121.556084 265.960388,118.942924 265.149933,116.443390 
z"/>
<path fill="#0C112A" opacity="1.000000" stroke="none" 
	d="
M257.441345,213.855408 
	C255.987061,211.449371 254.914825,209.039825 253.847473,206.303146 
	C256.563568,202.374039 259.666870,201.606369 263.610138,204.865341 
	C265.320892,211.094727 263.911438,213.126831 257.441345,213.855408 
z"/>
<path fill="#0C112A" opacity="1.000000" stroke="none" 
	d="
M210.377243,70.376541 
	C216.126831,71.262390 218.604156,74.444550 216.344193,78.089668 
	C215.296188,79.779968 212.746429,81.567299 210.966385,81.480804 
	C209.253220,81.397568 206.831726,79.253906 206.186264,77.481964 
	C205.031693,74.312347 206.767197,71.756226 210.377243,70.376541 
z"/>
<path fill="#442FBC" opacity="1.000000" stroke="none" 
	d="
M171.317551,205.496368 
	C171.801193,205.351120 172.527847,205.254974 173.623047,205.188736 
	C173.181244,205.327606 172.370895,205.436539 171.317551,205.496368 
z"/>
<path fill="#0B0F28" opacity="1.000000" stroke="none" 
	d="
M126.538086,261.806305 
	C123.247826,260.507141 120.588730,258.762115 121.465866,254.929993 
	C122.259560,251.462448 124.863808,250.396866 128.609283,250.788162 
	C133.974075,255.508194 133.231293,259.286865 126.538086,261.806305 
z"/>
<path fill="#5530BC" opacity="1.000000" stroke="none" 
	d="
M178.155838,133.938477 
	C193.174362,138.137283 203.745956,152.594345 202.821564,167.669800 
	C201.847656,183.552673 190.409668,196.448181 174.125763,199.035034 
	C169.761963,198.674362 165.345688,199.868332 165.344971,194.087372 
	C166.107864,194.110779 166.542358,194.168808 167.256866,194.328384 
	C168.692886,194.355576 169.848877,194.281219 171.398743,194.128052 
	C180.602692,193.060989 187.398621,188.784912 192.443954,181.542603 
	C200.751389,169.617737 199.513443,146.711288 176.075836,138.462051 
	C176.795853,136.726517 177.475845,135.332504 178.155838,133.938477 
z"/>
<path fill="#422EBA" opacity="1.000000" stroke="none" 
	d="
M165.016541,194.121979 
	C165.345688,199.868332 169.761963,198.674362 173.737289,199.017639 
	C158.624619,203.075623 139.889542,190.722610 136.129333,173.949097 
	C132.412277,157.368027 140.479706,141.778564 156.639435,135.384583 
	C157.007248,137.386032 157.016586,139.011215 156.722595,140.825714 
	C147.089844,146.058624 141.609085,153.801712 141.074341,164.428741 
	C140.320496,179.410004 148.592972,189.412811 165.016541,194.121979 
z"/>
<path fill="#4A2EB8" opacity="1.000000" stroke="none" 
	d="
M157.025909,140.636383 
	C157.016586,139.011215 157.007248,137.386032 157.000458,135.353348 
	C163.639191,131.736572 170.506454,131.850754 177.818909,133.730331 
	C177.475845,135.332504 176.795853,136.726517 175.660660,138.448380 
	C168.911758,137.110809 162.902115,138.221558 157.025909,140.636383 
z"/>
<path fill="#0A0D24" opacity="1.000000" stroke="none" 
	d="
M156.722595,140.825714 
	C162.902115,138.221558 168.911758,137.110809 175.620636,138.789886 
	C199.513443,146.711288 200.751389,169.617737 192.443954,181.542603 
	C187.398621,188.784912 180.602692,193.060989 170.997040,194.089539 
	C169.126572,194.162155 168.051697,194.194504 166.976837,194.226837 
	C166.542358,194.168808 166.107864,194.110779 165.344971,194.087372 
	C148.592972,189.412811 140.320496,179.410004 141.074341,164.428741 
	C141.609085,153.801712 147.089844,146.058624 156.722595,140.825714 
z"/>
<path fill="#422EBA" opacity="1.000000" stroke="none" 
	d="
M167.256866,194.328400 
	C168.051697,194.194504 169.126572,194.162155 170.603149,194.168335 
	C169.848877,194.281219 168.692886,194.355576 167.256866,194.328400 
z"/>
</svg>